<svg width="277" height="267" viewBox="0 0 277 267" fill="none" xmlns="http://www.w3.org/2000/svg">
<path d="M152.84 161.81C139.44 161.67 125.44 161.32 112.08 162.5C100.07 163.56 88.3499 166.74 77.0599 170.89C67.3499 174.46 57.0399 178.39 49.4699 185.71C49.0999 186.07 48.7299 186.44 48.3699 186.82C47.7799 187.44 47.2199 188.08 46.6899 188.75C38.1699 199.42 36.0499 213.03 36.1399 226.29C36.1399 226.29 36.3099 251.94 66.9199 263.34C97.5299 274.74 116.3 250.8 116.3 250.8C116.3 250.8 130.27 239.1 130.03 203.68C130.03 203.68 96.4599 205.73 96.4499 205.73C96.5599 205.72 95.2799 218.97 95.1099 219.96C94.1199 225.6 90.3399 229.48 85.0199 231.46C79.1399 233.64 70.5599 227.81 69.5099 221.94C68.8599 218.29 69.6499 214.39 71.9999 211.47C74.9599 207.78 79.3199 204.48 83.5999 202.77C90.6999 199.95 97.8599 197.73 105.5 197.13C114.09 196.46 121.62 195.58 129.71 195.26C133.51 195.11 137.31 194.97 141.11 194.91C142.98 194.88 145.22 194.58 147.07 195.03C147.09 195.02 152.84 161.81 152.84 161.81Z" fill="#78BB42"/>
<path d="M162.14 134.15C157.56 146.75 153.13 159.52 149.82 172.52C146.84 184.21 145.95 196.31 146.12 208.34C146.27 218.69 146.55 229.72 150.96 239.28C151.18 239.75 151.41 240.22 151.65 240.69C152.04 241.45 152.46 242.19 152.91 242.91C160.15 254.49 172.29 261 184.82 265.31C184.82 265.31 209.07 273.66 229.98 248.56C250.89 223.46 234.53 197.81 234.53 197.81C234.53 197.81 228.13 180.75 194.64 169.23C194.64 169.23 185.45 201.58 185.44 201.59C185.47 201.49 197.54 207.08 198.42 207.58C203.42 210.39 205.82 215.24 205.92 220.91C206.03 227.18 197.68 233.34 191.79 232.38C188.13 231.78 184.72 229.75 182.74 226.56C180.25 222.54 178.57 217.34 178.38 212.73C178.07 205.09 178.36 197.6 180.33 190.2C182.55 181.87 184.22 174.48 186.59 166.74C187.7 163.11 188.83 159.48 190.04 155.87C190.63 154.09 191.09 151.88 192.13 150.29C192.11 150.28 162.14 134.15 162.14 134.15Z" fill="#FEA202"/>
<path d="M136.22 118.21C147.09 126.06 160.79 134.74 172.38 141.48C182.8 147.54 194.2 151.72 205.82 154.84C215.81 157.53 226.5 160.27 236.9 158.65C237.42 158.57 237.93 158.48 238.44 158.38C239.28 158.21 240.1 158.01 240.92 157.77C254.04 153.97 263.62 144.08 271.2 133.2C271.2 133.2 285.86 112.16 267.44 85.1801C249.02 58.2001 219.87 66.9201 219.87 66.9201C219.87 66.9201 201.71 68.4101 181.46 97.4701C181.46 97.4701 210.06 115.16 210.07 115.17C209.98 115.11 218.67 105.03 219.38 104.32C223.45 100.28 228.77 99.3001 234.25 100.75C240.31 102.36 243.95 112.08 241.42 117.48C239.84 120.84 236.95 123.56 233.34 124.59C228.79 125.89 223.33 126.08 218.84 125C211.41 123.21 204.29 120.89 197.7 116.96C190.3 112.55 183.64 108.92 176.85 104.52C173.66 102.45 170.48 100.37 167.34 98.2301C165.79 97.1701 163.79 96.1301 162.54 94.7001C162.55 94.7201 136.22 118.21 136.22 118.21Z" fill="#ED4247"/>
<path d="M115.48 134.38C126.55 126.82 137.61 119.04 147.89 110.43C157.13 102.68 164.93 93.3801 171.81 83.5201C177.73 75.0301 183.94 65.91 185.96 55.5801C186.06 55.0701 186.15 54.55 186.23 54.0401C186.36 53.2001 186.45 52.35 186.5 51.5C187.39 37.87 181.33 25.5 173.68 14.6801C173.68 14.6801 158.87 -6.25995 127.24 1.90005C95.6101 10.0601 93.9001 40.43 93.9001 40.43C93.9001 40.43 89.1301 58.0101 109.59 86.9301L135.95 66.0401C135.87 66.1101 129.34 54.51 128.91 53.6C126.5 48.4 127.38 43.0601 130.61 38.4001C134.19 33.2401 144.56 33.12 148.78 37.34C151.4 39.96 152.98 43.6101 152.73 47.3601C152.41 52.0801 150.73 57.2801 148.19 61.1301C143.98 67.51 139.38 73.4201 133.45 78.2801C126.79 83.7501 121.11 88.7701 114.67 93.6701C111.64 95.9701 108.61 98.2601 105.52 100.48C104 101.58 100.84 104.16 99.0701 104.85C99.0801 104.84 115.48 134.38 115.48 134.38Z" fill="#5F57E2"/>
<path d="M124.37 161.75C119.91 149.11 115.88 133.54 110.2 121.39C105.09 110.47 98.1 100.54 90.34 91.3501C83.66 83.4501 76.44 75.1001 66.97 70.5001C66.5 70.2701 66.03 70.0501 65.55 69.8501C64.77 69.5101 63.97 69.2101 63.16 68.9301C50.22 64.5701 36.71 67.2401 24.28 71.8601C24.28 71.8601 0.240021 80.8001 2.07104e-05 113.46C-0.239979 146.12 28.68 155.57 28.68 155.57C28.68 155.57 44.45 164.69 77.65 152.35C77.65 152.35 64.23 121.51 64.23 121.5C64.27 121.6 51.39 124.93 50.4 125.11C44.76 126.11 39.82 123.88 36.15 119.56C32.09 114.78 34.63 104.72 39.79 101.73C43 99.8701 46.93 99.2801 50.48 100.49C54.96 102.01 59.55 104.97 62.62 108.42C67.7 114.13 72.24 120.1 75.41 127.07C78.98 134.91 82.38 141.69 85.46 149.18C86.9 152.7 88.33 156.22 89.69 159.77C90.36 161.52 91.41 164.32 91.62 166.21C91.62 166.21 99.51 165.13 107.54 164.04C115.88 162.91 124.37 161.75 124.37 161.75Z" fill="#289BDF"/>
</svg>
